<svg id="Layer_1" data-name="Layer 1" xmlns="http://www.w3.org/2000/svg" xmlns:xlink="http://www.w3.org/1999/xlink" viewBox="0 0 285.06 316.49"><defs><style>.cls-1{fill:#7c469b;}.cls-2{fill:none;stroke:#86489c;stroke-miterlimit:10;}.cls-3{fill:url(#linear-gradient);}.cls-4{fill:#7b2a89;}</style><linearGradient id="linear-gradient" x1="266.29" y1="128.91" x2="341.34" y2="369.64" gradientUnits="userSpaceOnUse"><stop offset="0.1" stop-color="#743393"/><stop offset="0.19" stop-color="#733291"/><stop offset="0.22" stop-color="#6f2f8a"/><stop offset="0.25" stop-color="#672a7d"/><stop offset="0.26" stop-color="#66297b"/><stop offset="0.32" stop-color="#5f2571"/><stop offset="0.43" stop-color="#4c1955"/><stop offset="0.84" stop-color="#8e53a1"/></linearGradient></defs><path class="cls-1" d="M427.52,119c-5.24.56-10.54.79-15.71,1.73-29.34,5.34-48.63,22.58-57.05,50.9A137.61,137.61,0,0,0,349.08,208c-.72,40,.07,80-.51,120-.35,24.49-8.89,46.06-27.87,62.4-15.77,13.6-34.65,19.5-55.21,20.26-23.31.86-45.61-2.76-65-16.83-21.44-15.56-32.21-37.16-32.6-63.32-.64-43.65-.39-87.32-.53-131,0-2.16,0-4.34-.19-6.49-.9-10.12-7-16-17.15-16.61-1.66-.1-3.31-.21-4.95-.39-.19,0-.33-.5-.93-1.46h66.63l.1,1.62-5.44.29c-10.28.59-17.14,7-17.15,17.09-.07,44.66-.09,89.32.24,134A78.29,78.29,0,0,0,200,368.4c15.46,25.2,38.65,35.29,67.47,32.72,26.85-2.39,47.27-15.05,59.18-39.85,5.35-11.16,7.27-23.12,7.27-35.44q0-55.24.08-110.49c0-15.74,1.66-31.28,7.3-46.13,10.41-27.43,30.09-44.22,58.8-50,7.47-1.52,15.19-1.81,22.81-2.5,1.59-.15,3.23.44,4.85.69Z" transform="translate(-143.23 -116.14)"/><path class="cls-2" d="M427.52,119c-5.24.56-10.54.79-15.71,1.73-29.34,5.34-48.63,22.58-57.05,50.9A137.61,137.61,0,0,0,349.08,208c-.72,40,.07,80-.51,120-.35,24.49-8.89,46.06-27.87,62.4-15.77,13.6-34.65,19.5-55.21,20.26-23.31.86-45.61-2.76-65-16.83-21.44-15.56-32.21-37.16-32.6-63.32-.64-43.65-.39-87.32-.53-131,0-2.16,0-4.34-.19-6.49-.9-10.12-7-16-17.15-16.61-1.66-.1-3.31-.21-4.95-.39-.19,0-.33-.5-.93-1.46h66.63l.1,1.62-5.44.29c-10.28.59-17.14,7-17.15,17.09-.07,44.66-.09,89.32.24,134A78.29,78.29,0,0,0,200,368.4c15.46,25.2,38.65,35.29,67.47,32.72,26.85-2.39,47.27-15.05,59.18-39.85,5.35-11.16,7.27-23.12,7.27-35.44q0-55.24.08-110.49c0-15.74,1.66-31.28,7.3-46.13,10.41-27.43,30.09-44.22,58.8-50,7.47-1.52,15.19-1.81,22.81-2.5,1.59-.15,3.23.44,4.85.69Z" transform="translate(-143.23 -116.14)"/><path class="cls-3" d="M427.52,119c-5.24.56-10.54.79-15.71,1.73-29.34,5.34-48.63,22.58-57.05,50.9A137.61,137.61,0,0,0,349.08,208c-.72,40,.07,80-.51,120-.35,24.49-8.89,46.06-27.87,62.4-15.77,13.6-34.65,19.5-55.21,20.26-23.31.86-45.61-2.76-65-16.83-21.44-15.56-32.21-37.16-32.6-63.32-.64-43.65-.39-87.32-.53-131,0-2.16,0-4.34-.19-6.49-.9-10.12-7-16-17.15-16.61-1.66-.1-3.31-.21-4.95-.39-.19,0-.33-.5-.93-1.46h66.63l.1,1.62-5.44.29c-10.28.59-17.14,7-17.15,17.09-.07,44.66-.09,89.32.24,134A78.29,78.29,0,0,0,200,368.4c15.46,25.2,38.65,35.29,67.47,32.72,26.85-2.39,47.27-15.05,59.18-39.85,5.35-11.16,7.27-23.12,7.27-35.44q0-55.24.08-110.49c0-15.74,1.66-31.28,7.3-46.13,10.41-27.43,30.09-44.22,58.8-50,7.47-1.52,15.19-1.81,22.81-2.5,1.59-.15,3.23.44,4.85.69Z" transform="translate(-143.23 -116.14)"/><path class="cls-4" d="M265.32,168.51c13.8-15.94,27.83-29.8,42.61-44.31,4,5.15,7.82,9.88,11.34,14.82.46.65-.25,3.1-1.06,3.53-16.24,8.76-32.57,17.35-48.91,25.92C268.7,168.79,267.78,168.51,265.32,168.51Z" transform="translate(-143.23 -116.14)"/><path class="cls-4" d="M387.87,370.12c-13.94,25.43-36,43.82-59,62.51C328.74,423,366.07,384.38,387.87,370.12Z" transform="translate(-143.23 -116.14)"/><path class="cls-2" d="M209.83,176.44c-4.64,2.06-7.41,6.95-8.84,11.82-1.89,6.48-2,13.33-2.08,20.09q-.25,21.71-.53,43.41l-.1,8.49-.43,34.32c-.14,11.29.72,23.37.84,34.66a67.72,67.72,0,0,0,.69,10.75,53.07,53.07,0,0,0,3.8,11.88c9.31,21.78,25.77,41.68,48.16,49.43" transform="translate(-143.23 -116.14)"/><path class="cls-2" d="M313.09,409.23a16.25,16.25,0,0,0,5.41-13.56c1.46,3.66,3,7.39,5.55,10.36,2.3,2.64,6.18,4.61,9.26,2.94a6.53,6.53,0,0,0,3-4.43,15,15,0,0,0-.08-5.51,23.43,23.43,0,0,0-2.58-8,2.87,2.87,0,0,0-1.13-1.23c-1.3-.62-2.67.77-3.19,2.11a7.82,7.82,0,0,0,.89,7.46,6.12,6.12,0,0,0,7,2,7.23,7.23,0,0,0,3.77-4.61,21.34,21.34,0,0,0,.67-6.08,7.78,7.78,0,0,1,2.54,1.06c.75-.75.76-1.93.93-3s.78-2.23,1.84-2.24a6.19,6.19,0,0,0,1.05.08c1.26-.19,1-2.18,1.77-3.17.62-.75,1.75-.75,2.68-1.06a3.83,3.83,0,0,0,2.36-2.34,1.71,1.71,0,0,1,.46-.87c.55-.4,1.27.13,1.86.46a4,4,0,0,0,3.89-.33,12,12,0,0,0,2.9-2.83l6.88-8.47" transform="translate(-143.23 -116.14)"/></svg>